<svg width="14" height="14" viewBox="0 0 14 14" fill="none" xmlns="http://www.w3.org/2000/svg">
<path fill-rule="evenodd" clip-rule="evenodd" d="M8.65963 7L13.6467 2.01291C14.1068 1.55282 14.1068 0.805166 13.6467 0.345068C13.1866 -0.115023 12.439 -0.115023 11.9789 0.345068L7 5.33216L2.0047 0.345068C1.5446 -0.115023 0.796952 -0.115023 0.345068 0.345068C-0.115023 0.805159 -0.115023 1.55281 0.345068 2.01291L5.33216 7L0.345068 11.9871C-0.115023 12.4472 -0.115023 13.1948 0.345068 13.6549C0.805159 14.115 1.55281 14.115 2.0047 13.6549L6.99178 8.65962L11.9789 13.6549C12.439 14.115 13.1866 14.115 13.6467 13.6549C14.1068 13.1948 14.1068 12.4472 13.6467 11.9871L8.65963 7Z" fill="#95989A"/>
</svg>
