<svg width="20" height="20" viewBox="0 0 20 20" fill="none" xmlns="http://www.w3.org/2000/svg">
<path d="M19.7545 18.345L14.3625 12.952C15.6157 11.3399 16.2074 9.31081 16.017 7.27782C15.8267 5.24482 14.8686 3.36082 13.338 2.0094C11.8073 0.657985 9.81906 -0.0592184 7.77815 0.00383075C5.73724 0.0668799 3.79711 0.905434 2.35276 2.34876C0.908421 3.79208 0.0685002 5.73164 0.00400821 7.77251C-0.0604838 9.81338 0.655293 11.8021 2.00563 13.3337C3.35596 14.8654 5.23931 15.8247 7.27217 16.0165C9.30503 16.2083 11.3345 15.6181 12.9475 14.366L18.3405 19.758L19.7545 18.345ZM8.0475 14.052C6.65933 14.0521 5.3141 13.5708 4.24101 12.6902C3.16791 11.8096 2.43335 10.5841 2.16252 9.22261C1.89168 7.86112 2.10131 6.44784 2.75569 5.22359C3.41007 3.99934 4.46872 3.03987 5.75123 2.50867C7.03374 1.97746 8.46076 1.9074 9.78913 2.31041C11.1175 2.71342 12.265 3.56457 13.0362 4.71883C13.8074 5.87308 14.1544 7.25903 14.0183 8.6405C13.8821 10.022 13.2712 11.3135 12.2895 12.295C11.7337 12.8537 11.0726 13.2967 10.3445 13.5983C9.61633 13.8999 8.83561 14.0541 8.0475 14.052Z" fill="#95989A"/>
</svg>
