<svg width="256" height="56" viewBox="0 0 256 56" fill="none" xmlns="http://www.w3.org/2000/svg">
<path d="M109.38 32.2519L103.705 24.2956C104.417 24.1076 105.1 23.8196 105.732 23.4404C106.328 23.0808 106.86 22.6238 107.306 22.0884C107.755 21.5428 108.105 20.9231 108.341 20.2572C108.893 18.5795 108.835 16.7609 108.177 15.122C107.831 14.3121 107.302 13.5936 106.631 13.0232C105.906 12.4229 105.069 11.9734 104.168 11.701C103.113 11.3786 102.013 11.2216 100.91 11.2357H91.5421V32.2519H95.2412V24.9253H99.8656L105.03 32.2519H109.38ZM104.966 18.1094C104.984 18.601 104.888 19.0902 104.685 19.5382C104.482 19.9863 104.178 20.381 103.796 20.6909C102.892 21.3708 101.777 21.7113 100.647 21.6529H95.2412V14.5973H100.616C101.756 14.5268 102.886 14.8382 103.829 15.4823C104.214 15.797 104.519 16.1993 104.717 16.6557C104.916 17.1121 105.002 17.6093 104.969 18.1059" fill="#085FAD"/>
<path d="M117.984 11.2349H114.29V32.2545H117.984V11.2349Z" fill="#085FAD"/>
<path d="M140.698 18.2913C140.714 17.2928 140.524 16.3017 140.142 15.3792C139.78 14.5312 139.237 13.7729 138.55 13.158C137.817 12.5128 136.959 12.0268 136.028 11.7308C134.954 11.3878 133.832 11.2207 132.705 11.2358H124.423V32.2537H128.116V25.4973H132.291C133.398 25.5048 134.501 25.3481 135.563 25.032C136.532 24.7484 137.438 24.285 138.235 23.6661C138.999 23.0616 139.615 22.2912 140.037 21.4133C140.494 20.4365 140.72 19.3677 140.698 18.2896V18.2913ZM136.945 18.3805C136.963 18.9015 136.862 19.4197 136.65 19.8958C136.438 20.372 136.12 20.7935 135.72 21.1282C134.774 21.8642 133.594 22.2321 132.397 22.1637H128.103V14.5974H132.397C133.573 14.5361 134.736 14.8691 135.701 15.5436C136.118 15.8838 136.446 16.319 136.659 16.8127C136.872 17.3065 136.964 17.8442 136.925 18.3805" fill="#085FAD"/>
<path d="M154.197 14.6577H160.863V11.2349H143.808V14.6577H150.47V32.2528H154.194L154.197 14.6577Z" fill="#085FAD"/>
<path d="M185.499 21.7152C185.506 20.2763 185.23 18.8502 184.688 17.5175C184.172 16.2214 183.401 15.0419 182.421 14.049C181.441 13.0561 180.272 12.2699 178.983 11.737C177.575 11.1536 176.062 10.8626 174.538 10.8818C173.068 10.8599 171.609 11.1344 170.247 11.6888C168.885 12.2432 167.649 13.0662 166.612 14.1087C165.632 15.1031 164.859 16.2819 164.338 17.577C163.257 20.2753 163.257 23.2862 164.338 25.9845C164.854 27.2805 165.625 28.4599 166.605 29.4527C167.585 30.4456 168.754 31.2319 170.043 31.765C171.451 32.3485 172.964 32.6395 174.488 32.6203C175.958 32.6419 177.418 32.3671 178.779 31.8124C180.141 31.2577 181.377 30.4344 182.414 29.3916C183.394 28.3971 184.167 27.2183 184.688 25.9233C185.23 24.5906 185.506 23.1645 185.499 21.7257V21.7152ZM181.625 21.7851C181.631 22.7753 181.453 23.7579 181.101 24.6833C180.771 25.5598 180.277 26.3649 179.644 27.0549C179.014 27.732 178.253 28.2736 177.407 28.6465C176.066 29.2402 174.573 29.4016 173.137 29.1082C171.7 28.8148 170.39 28.0813 169.389 27.0094C168.75 26.3153 168.251 25.5048 167.918 24.622C167.218 22.754 167.218 20.6955 167.918 18.8275C168.248 17.9511 168.742 17.146 169.375 16.4559C170.005 15.7786 170.766 15.237 171.612 14.8643C172.521 14.4754 173.5 14.2762 174.489 14.2789C175.478 14.2816 176.456 14.4862 177.363 14.88C178.222 15.2626 178.995 15.814 179.637 16.5014C180.275 17.1958 180.775 18.0062 181.108 18.8888C181.46 19.8141 181.638 20.7967 181.632 21.7869" fill="#085FAD"/>
<path d="M207.764 17.1798V32.2528H211.449V11.2349H207.516L201.13 21.1745L194.734 11.2349H190.8V32.2528H194.433V17.241L201.009 27.0897H201.13L207.764 17.1798Z" fill="#085FAD"/>
<path d="M228.558 11.0856H225.135L215.887 32.2487H219.67L221.831 27.1766H231.771L233.903 32.2487H237.807L228.558 11.0856ZM230.421 23.9077H223.183L226.786 15.5001L230.421 23.9077Z" fill="#085FAD"/>
<path d="M248.422 14.6577H255.087V11.2349H238.033V14.6577H244.698V32.2528H248.422V14.6577Z" fill="#085FAD"/>
<path d="M71.5524 38.344H68.9481V44.149H71.6346C71.9293 44.1517 72.2231 44.117 72.5091 44.0458C72.7527 43.9863 72.9834 43.8826 73.1895 43.7397C73.3729 43.6098 73.5222 43.4376 73.625 43.2378C73.7309 43.0237 73.7837 42.7874 73.7789 42.5486C73.7824 42.3703 73.7545 42.1927 73.6967 42.0239C73.6453 41.8782 73.565 41.7443 73.4606 41.6304C73.3543 41.517 73.231 41.4208 73.095 41.3453C72.9453 41.2611 72.7885 41.1903 72.6263 41.1337C72.7355 41.076 72.8396 41.0093 72.9376 40.9343C73.0391 40.8581 73.1286 40.7674 73.2035 40.665C73.2797 40.5544 73.3387 40.4329 73.3784 40.3047C73.428 40.1522 73.4522 39.9927 73.4501 39.8324C73.458 39.6234 73.4154 39.4155 73.3259 39.2264C73.2364 39.0374 73.1026 38.8727 72.9359 38.7463C72.5276 38.4597 72.0346 38.3192 71.5367 38.3475L71.5524 38.344ZM71.3303 40.7961H69.9311V39.2535H71.3985C71.6657 39.2356 71.9317 39.3036 72.1575 39.4476C72.2432 39.5108 72.312 39.5941 72.3578 39.6902C72.4035 39.7863 72.4249 39.8922 72.4199 39.9986C72.4276 40.1163 72.4041 40.2341 72.3515 40.3397C72.299 40.4454 72.2194 40.5353 72.1208 40.6002C71.8801 40.7413 71.6037 40.8093 71.325 40.7961H71.3303ZM71.6241 43.2448H69.9328V41.6532H71.5489C71.8626 41.6312 72.1757 41.7037 72.4479 41.8613C72.5423 41.925 72.6189 42.0118 72.6703 42.1134C72.7217 42.2151 72.7463 42.3281 72.7417 42.442C72.7484 42.5596 72.7243 42.6769 72.6719 42.7824C72.6194 42.8879 72.5404 42.9779 72.4427 43.0436C72.1957 43.1918 71.9099 43.2625 71.6224 43.2465L71.6241 43.2448ZM79.7903 38.3493H78.7706V41.6916C78.8033 42.1305 78.6634 42.5648 78.3806 42.9019C78.2403 43.0405 78.0726 43.1482 77.8883 43.2181C77.7039 43.2879 77.507 43.3185 77.3102 43.3077C77.1108 43.3181 76.9115 43.2857 76.7256 43.2127C76.5398 43.1397 76.3717 43.0278 76.2328 42.8845C75.9507 42.5373 75.8112 42.0958 75.8427 41.6496V38.3493H74.8231V41.6916C74.8161 42.0681 74.8753 42.4428 74.998 42.7988C75.1024 43.0991 75.2721 43.3727 75.4947 43.5998C75.7148 43.8181 75.9815 43.9837 76.2747 44.0843C76.6029 44.1958 76.9478 44.2502 77.2944 44.2452C77.645 44.2502 77.9939 44.1958 78.3263 44.0843C78.6218 43.9837 78.89 43.8161 79.1099 43.5946C79.3342 43.3617 79.5054 43.083 79.6119 42.7778C79.7356 42.4124 79.7948 42.0283 79.7868 41.6427V38.351L79.7903 38.3493ZM83.9284 41.8473L86.2336 38.3493H85.0653L83.423 40.9203L81.7981 38.3493H80.5966L82.9018 41.8648V44.1525H83.9302V41.835L83.9284 41.8473Z" fill="#085FAD"/>
<path d="M90.6658 37.4518H89.8613V45.13H90.6658V37.4518Z" fill="#085FAD"/>
<path d="M95.7328 39.9064C95.7331 39.8105 95.7557 39.7161 95.7988 39.6304C95.8419 39.5448 95.9043 39.4704 95.9812 39.4131C96.1837 39.2662 96.431 39.1945 96.6808 39.2103C96.9511 39.2112 97.2187 39.2634 97.4695 39.3642C97.7498 39.478 98.0143 39.6274 98.2566 39.8084L98.804 39.0371C98.5161 38.8056 98.1923 38.6225 97.8456 38.4949C97.4771 38.3656 97.0887 38.3022 96.6983 38.3078C96.4282 38.305 96.1595 38.3457 95.9024 38.4284C95.6726 38.5025 95.4598 38.6214 95.2763 38.7782C95.1037 38.9258 94.9643 39.1082 94.867 39.3134C94.7645 39.5322 94.7136 39.7715 94.7183 40.0131C94.7119 40.2494 94.7561 40.4843 94.8478 40.7022C94.9329 40.8893 95.0605 41.054 95.2203 41.1831C95.4023 41.3266 95.6068 41.4389 95.8255 41.5155C96.0955 41.6122 96.3712 41.6922 96.651 41.7551C96.8739 41.8074 97.094 41.871 97.3104 41.9457C97.4514 41.9922 97.5856 42.0575 97.7092 42.1399C97.7951 42.1961 97.864 42.2747 97.9086 42.3672C97.9459 42.4563 97.9643 42.5522 97.9628 42.6488C97.9655 42.7548 97.9414 42.8597 97.8928 42.9538C97.8442 43.048 97.7726 43.1284 97.6847 43.1875C97.4618 43.3312 97.1992 43.401 96.9343 43.3869C96.5977 43.3932 96.2637 43.327 95.9549 43.1928C95.6449 43.0483 95.3574 42.8598 95.1014 42.6331L94.4875 43.3624C94.8175 43.6662 95.2028 43.9038 95.6226 44.062C96.0341 44.214 96.4695 44.291 96.9081 44.2894C97.1916 44.2926 97.4739 44.2537 97.7459 44.174C97.9841 44.1047 98.2063 43.9894 98.4 43.8347C98.5813 43.6862 98.727 43.4992 98.8268 43.2872C98.932 43.0556 98.984 42.8034 98.9789 42.5491C98.9838 42.3319 98.9427 42.1162 98.8583 41.916C98.778 41.7347 98.6585 41.5734 98.5085 41.4438C98.3352 41.2946 98.1376 41.1763 97.9243 41.094C97.6607 40.991 97.3908 40.9052 97.1162 40.8368C96.8399 40.7704 96.612 40.7068 96.4324 40.6462C96.2827 40.5998 96.1402 40.5327 96.0091 40.4468C95.9195 40.3891 95.8465 40.3089 95.7975 40.2142C95.7565 40.1199 95.7368 40.0178 95.7398 39.9151L95.7328 39.9064ZM104.485 38.397H100.182V44.202H104.527V43.2907H101.204V41.7323H104.114V40.8193H101.204V39.3099H104.487L104.485 38.397ZM105.737 44.202H109.809V43.2732H106.757V38.397H105.737V44.202ZM110.871 44.202H114.942V43.2732H111.89V38.397H110.871V44.202Z" fill="#085FAD"/>
<path d="M119.512 37.4518H118.708V45.13H119.512V37.4518Z" fill="#085FAD"/>
<path d="M124.579 39.9142C124.579 39.8181 124.601 39.7233 124.645 39.6373C124.688 39.5514 124.75 39.4767 124.827 39.4193C125.03 39.2723 125.277 39.2006 125.527 39.2164C125.797 39.2175 126.064 39.2697 126.314 39.3703C126.595 39.4841 126.86 39.6334 127.103 39.8146L127.65 39.0432C127.362 38.8117 127.039 38.6286 126.692 38.501C126.323 38.3715 125.934 38.3082 125.543 38.3139C125.273 38.3115 125.004 38.3522 124.747 38.4346C124.517 38.509 124.305 38.6278 124.121 38.7844C123.948 38.932 123.809 39.1144 123.712 39.3196C123.609 39.5383 123.558 39.7777 123.563 40.0192C123.556 40.2555 123.6 40.4905 123.692 40.7083C123.777 40.8955 123.905 41.0602 124.065 41.1893C124.247 41.3327 124.451 41.445 124.67 41.5216C124.94 41.6183 125.216 41.6984 125.496 41.7612C125.718 41.8135 125.939 41.8771 126.155 41.9519C126.295 41.9984 126.429 42.0637 126.552 42.146C126.638 42.2023 126.707 42.2809 126.751 42.3734C126.789 42.4625 126.807 42.5584 126.806 42.655C126.808 42.7609 126.784 42.8659 126.736 42.9601C126.687 43.0543 126.615 43.1346 126.527 43.1937C126.304 43.3374 126.042 43.4071 125.777 43.393C125.441 43.3991 125.108 43.3329 124.799 43.1989C124.489 43.0544 124.202 42.8659 123.946 42.6392L123.332 43.3686C123.663 43.6724 124.049 43.9099 124.469 44.0682C124.88 44.2204 125.316 44.2974 125.754 44.2955C126.038 44.2987 126.32 44.2598 126.592 44.1801C126.831 44.1109 127.054 43.9957 127.248 43.8408C127.429 43.6923 127.575 43.5053 127.675 43.2933C127.781 43.0619 127.833 42.8097 127.829 42.5553C127.834 42.3375 127.793 42.1211 127.708 41.9204C127.628 41.7392 127.508 41.578 127.358 41.4481C127.185 41.299 126.987 41.1806 126.774 41.0983C126.511 40.9952 126.241 40.9093 125.966 40.8412C125.69 40.7748 125.462 40.7112 125.282 40.6506C125.132 40.6041 124.99 40.537 124.859 40.4512C124.769 40.3933 124.696 40.3132 124.647 40.2186C124.607 40.1249 124.587 40.0234 124.59 39.9212L124.579 39.9142ZM131.363 39.3493H133.205V38.4048H128.495V39.3493H130.337V44.2081H131.365V39.3493H131.363ZM139.78 41.2977C139.782 40.8997 139.706 40.505 139.556 40.1364C139.413 39.7788 139.201 39.4533 138.93 39.1794C138.66 38.9054 138.337 38.6884 137.982 38.5413C137.196 38.2249 136.319 38.2249 135.533 38.5413C135.174 38.6949 134.847 38.9164 134.571 39.1936C134.3 39.4684 134.086 39.7941 133.942 40.1521C133.643 40.8969 133.643 41.7282 133.942 42.4731C134.084 42.8307 134.296 43.1562 134.567 43.4302C134.837 43.7042 135.16 43.9211 135.516 44.0682C135.904 44.2289 136.32 44.3092 136.74 44.3043C137.146 44.3106 137.549 44.2348 137.925 44.0815C138.301 43.9282 138.642 43.7006 138.928 43.4123C139.199 43.1379 139.414 42.812 139.558 42.4538C139.708 42.0851 139.784 41.6905 139.781 41.2925L139.78 41.2977ZM138.711 41.3082C138.713 41.5819 138.663 41.8535 138.566 42.1093C138.475 42.351 138.338 42.573 138.164 42.7634C137.99 42.9501 137.78 43.0994 137.546 43.2024C137.295 43.3104 137.025 43.3661 136.752 43.3661C136.479 43.3661 136.209 43.3104 135.958 43.2024C135.722 43.0966 135.509 42.9443 135.332 42.7546C135.155 42.5632 135.017 42.3393 134.926 42.0953C134.732 41.5794 134.732 41.0107 134.926 40.4949C135.017 40.253 135.154 40.0309 135.328 39.8408C135.502 39.654 135.712 39.5046 135.946 39.4018C136.197 39.2937 136.467 39.2379 136.74 39.2379C137.013 39.2379 137.283 39.2937 137.534 39.4018C137.771 39.5076 137.984 39.6598 138.16 39.8495C138.336 40.0413 138.474 40.2652 138.566 40.5089C138.663 40.7646 138.713 41.0363 138.711 41.31V41.3082ZM145.942 44.2046L144.367 42.0078C144.564 41.9557 144.753 41.8762 144.927 41.7717C145.092 41.6729 145.239 41.547 145.363 41.3992C145.487 41.2485 145.584 41.0775 145.649 40.8937C145.802 40.4303 145.786 39.928 145.604 39.4752C145.508 39.2515 145.362 39.0528 145.177 38.8946C144.977 38.7284 144.746 38.6041 144.497 38.529C144.206 38.4404 143.902 38.3973 143.598 38.4014H141.011V44.2063H142.031V42.1705H143.307L144.733 44.1941H145.935L145.942 44.2046ZM144.717 40.299C144.722 40.4349 144.696 40.5702 144.64 40.6941C144.584 40.818 144.499 40.927 144.394 41.0126C144.143 41.2018 143.833 41.296 143.519 41.2785H142.025V39.3301H143.509C143.824 39.3104 144.137 39.3966 144.397 39.5749C144.504 39.662 144.588 39.7733 144.643 39.8996C144.697 40.0259 144.721 40.1634 144.712 40.3008L144.717 40.299ZM151.304 38.4031H147.001V44.2081H151.346V43.2968H148.023V41.7385H150.924V40.8272H148.014V39.3178H151.297L151.304 38.4031Z" fill="#085FAD"/>
<path d="M160.093 43.2639L159.439 42.601C159.213 42.817 158.959 43.0022 158.685 43.152C158.402 43.2937 158.088 43.3634 157.772 43.3549C157.508 43.3575 157.246 43.3026 157.006 43.194C156.774 43.0889 156.567 42.9378 156.395 42.7497C156.222 42.5574 156.087 42.3336 155.998 42.0903C155.902 41.8318 155.854 41.558 155.857 41.2823C155.854 41.0077 155.902 40.735 155.998 40.4777C156.087 40.2371 156.222 40.0161 156.395 39.8271C156.567 39.6415 156.775 39.4922 157.006 39.3881C157.246 39.2794 157.508 39.2245 157.772 39.2272C158.079 39.2219 158.383 39.2903 158.659 39.4266C158.928 39.5662 159.176 39.7428 159.397 39.9513L160.053 39.1957C159.915 39.0639 159.769 38.9423 159.614 38.8319C159.455 38.7193 159.286 38.6232 159.108 38.5451C158.915 38.4616 158.713 38.3988 158.506 38.3579C158.267 38.3117 158.024 38.2894 157.781 38.2915C157.365 38.2858 156.953 38.3662 156.57 38.5276C156.216 38.6772 155.895 38.8962 155.626 39.1716C155.358 39.4471 155.147 39.7734 155.007 40.1314C154.859 40.5031 154.784 40.8998 154.786 41.2998C154.783 41.703 154.859 42.103 155.01 42.4769C155.228 43.0198 155.606 43.4838 156.093 43.8079C156.58 44.132 157.154 44.3009 157.739 44.2923C157.988 44.2948 158.236 44.2714 158.48 44.2224C158.694 44.1787 158.901 44.1094 159.098 44.016C159.283 43.9257 159.459 43.8173 159.622 43.6924C159.79 43.564 159.946 43.4212 160.089 43.2657L160.093 43.2639ZM166.085 44.1944L164.511 41.9976C164.707 41.9454 164.896 41.866 165.07 41.7615C165.236 41.6627 165.383 41.5368 165.506 41.389C165.63 41.2383 165.727 41.0673 165.793 40.8835C165.945 40.4201 165.929 39.9177 165.747 39.4651C165.652 39.2409 165.506 39.0421 165.321 38.8844C165.121 38.7182 164.889 38.5939 164.64 38.5188C164.349 38.4302 164.046 38.3872 163.741 38.3912H161.154V44.1961H162.174V42.1725H163.451L164.876 44.1961H166.078L166.085 44.1944ZM164.861 40.2888C164.866 40.4248 164.839 40.56 164.783 40.6839C164.727 40.8078 164.643 40.9169 164.537 41.0024C164.286 41.1917 163.976 41.2858 163.663 41.2683H162.171V39.3199H163.654C163.968 39.3006 164.28 39.3868 164.54 39.5647C164.647 39.6519 164.731 39.7633 164.786 39.8895C164.841 40.0158 164.864 40.1533 164.855 40.2906L164.861 40.2888ZM169.674 41.8822L171.979 38.3842H170.811L169.168 40.9552L167.544 38.3842H166.34L168.645 41.8997V44.1874H169.674V41.8734V41.8822ZM177.37 40.3396C177.374 40.0637 177.321 39.7898 177.216 39.535C177.116 39.3006 176.966 39.0911 176.777 38.9211C176.573 38.7427 176.335 38.6086 176.077 38.5276C175.781 38.433 175.471 38.3869 175.161 38.3912H172.887V44.1961H173.906V42.3299H175.059C175.365 42.3324 175.67 42.2894 175.963 42.2023C176.231 42.124 176.481 41.9958 176.701 41.8245C176.912 41.6574 177.082 41.4445 177.198 41.2018C177.322 40.9316 177.381 40.6366 177.373 40.3396H177.37ZM176.336 40.364C176.341 40.5078 176.314 40.6508 176.255 40.7823C176.197 40.9138 176.11 41.0304 176 41.1231C175.739 41.3256 175.413 41.4269 175.084 41.4082H173.898V39.3199H175.084C175.408 39.3025 175.73 39.3942 175.997 39.5805C176.112 39.6742 176.203 39.7944 176.262 39.9308C176.321 40.0672 176.346 40.2158 176.336 40.364ZM180.873 39.3356H182.713V38.3912H178.011V39.3356H179.853V44.1944H180.882L180.873 39.3356ZM189.289 41.284C189.291 40.886 189.215 40.4914 189.065 40.1227C188.923 39.7652 188.71 39.4399 188.44 39.1659C188.169 38.8919 187.847 38.6749 187.491 38.5276C186.705 38.2113 185.828 38.2113 185.042 38.5276C184.683 38.6812 184.356 38.9027 184.081 39.18C183.809 39.4547 183.595 39.7805 183.451 40.1384C183.153 40.8834 183.153 41.7144 183.451 42.4594C183.593 42.8169 183.806 43.1422 184.077 43.4162C184.347 43.6901 184.669 43.9072 185.025 44.0545C185.413 44.2153 185.829 44.2956 186.249 44.2906C186.656 44.2966 187.059 44.2207 187.435 44.0675C187.811 43.9142 188.153 43.6867 188.439 43.3986C188.71 43.1237 188.924 42.798 189.069 42.4401C189.219 42.0714 189.295 41.6768 189.293 41.2788L189.289 41.284ZM188.224 41.2945C188.226 41.5682 188.176 41.8399 188.079 42.0956C187.988 42.3373 187.851 42.5594 187.676 42.7497C187.502 42.9363 187.293 43.0857 187.059 43.1887C186.808 43.2967 186.538 43.3524 186.265 43.3524C185.992 43.3524 185.722 43.2967 185.471 43.1887C185.235 43.0827 185.022 42.9305 184.845 42.741C184.669 42.5492 184.531 42.3254 184.439 42.0816C184.245 41.5658 184.245 40.9971 184.439 40.4812C184.53 40.2395 184.667 40.0174 184.841 39.8271C185.015 39.6404 185.225 39.491 185.459 39.3881C185.71 39.2801 185.98 39.2244 186.253 39.2244C186.526 39.2244 186.796 39.2801 187.047 39.3881C187.283 39.4941 187.496 39.6463 187.673 39.8358C187.849 40.0276 187.987 40.2515 188.079 40.4952C188.176 40.7509 188.226 41.0226 188.224 41.2963" fill="#085FAD"/>
<path fill-rule="evenodd" clip-rule="evenodd" d="M28.0299 5.05892C29.1874 5.05818 30.3433 5.1447 31.4877 5.31777L35.7256 1.0869C31.2427 -0.199942 26.5094 -0.346609 21.9555 0.660217C17.4015 1.66704 13.1712 3.79547 9.64868 6.85222C6.12613 9.90897 3.42293 13.7972 1.78454 18.1639C0.146153 22.5305 -0.375518 27.2373 0.266897 31.8568C0.909312 36.4762 2.69546 40.862 5.46316 44.616C8.23085 48.3699 11.8924 51.373 16.1154 53.3526C20.3383 55.3322 24.9888 56.2256 29.6447 55.9516C34.3006 55.6777 38.8143 54.2451 42.7759 51.7839L39.0925 48.1109L18.9875 27.9973L39.0925 7.89757L42.7759 4.21064C41.2661 3.27343 39.6702 2.48277 38.0098 1.84947L34.0133 5.84772L26.8301 13.0309L11.8585 27.9973L34.0133 50.1573C30.8577 51.0107 27.5562 51.1801 24.3298 50.654C21.1035 50.128 18.0267 48.9186 15.3057 47.107C12.5846 45.2954 10.282 42.9233 8.55203 40.1496C6.82209 37.3759 5.70474 34.2646 5.2748 31.024C4.84486 27.7835 5.11225 24.4884 6.05908 21.3596C7.00591 18.2307 8.61031 15.3403 10.7649 12.8818C12.9194 10.4233 15.5744 8.45358 18.5519 7.10442C21.5295 5.75526 24.761 5.05786 28.0299 5.05892ZM44.8205 12.3611L35.493 21.6886L29.172 27.9973L44.8205 43.644C48.5263 39.6697 50.7009 34.5091 50.9572 29.0812C51.2134 23.6534 49.5346 18.3108 46.2197 14.0051L49.8052 10.4249C54.0565 15.6919 56.2547 22.3213 55.9926 29.0849C55.7305 35.8485 53.0259 42.288 48.3797 47.2102C47.2215 48.4377 45.9554 49.5586 44.5966 50.5596L40.9814 46.9444L22.0431 27.9973L40.9832 9.06241L44.5984 5.4472C45.9564 6.44716 47.2219 7.56694 48.3797 8.79306L44.8205 12.3611Z" fill="#085FAD"/>
<path d="M78.4365 20.2738L87.1816 11.2349H82.6482L72.6385 21.8042V11.2349H68.9481V32.2528H72.6385V26.1575L75.911 22.7941L83.0819 32.2528H87.5559L78.4365 20.2738Z" fill="#085FAD"/>
</svg>
